<?xml version="1.0" encoding="UTF-8"?>
<svg id="Layer_2" data-name="Layer 2" xmlns="http://www.w3.org/2000/svg" xmlns:xlink="http://www.w3.org/1999/xlink" viewBox="0 0 190.36 192.03">
  <defs>
    <style>
      .cls-1 {
        fill: url(#linear-gradient);
      }

      .cls-1, .cls-2 {
        stroke-width: 0px;
      }

      .cls-2 {
        fill: url(#linear-gradient-2);
      }
    </style>
    <linearGradient id="linear-gradient" x1="6.77" y1="149.29" x2="197.57" y2="52.07" gradientUnits="userSpaceOnUse">
      <stop offset="0" stop-color="#50e3c2"/>
      <stop offset=".19" stop-color="#4fddc4"/>
      <stop offset=".44" stop-color="#4ecdca"/>
      <stop offset=".71" stop-color="#4cb3d4"/>
      <stop offset=".99" stop-color="#4a90e2"/>
    </linearGradient>
    <linearGradient id="linear-gradient-2" x1="16.23" y1="204.94" x2="119.97" y2="152.09" xlink:href="#linear-gradient"/>
  </defs>
  <g id="Layer_1-2" data-name="Layer 1">
    <g>
      <path class="cls-1" d="M1.13,137.12c27.53-11.09,66.03-4.05,97.35,11.26,4.83,2.23,9.21,4.44,13.61,6.78,24.59,14.36,55.98,21.76,73.03,18.2,7.29-1.07,4.67-9.53,5.17-15.82,0-2.68,0-5.61,0-8.23.06-4.75-.16-6.4-4.76-5.72-19.01,2.77-36.14-13.6-33.84-32.85,1.49-14.88,14.4-26.47,29.15-26.55,2.85-.27,6.13.94,8.67.24.57-.33.71-1.04.75-1.74.06-4.16,0-14.69.03-24.51-.12-7.24.28-14.99-.19-20.77-.31-.66-1.22-.47-1.92-.52-9.17-.07-53.03.14-62.15-.09-1.41,0-1.1-2.8-1.01-4.53.17-3.04-.01-6.22-.74-9.26-2.07-8.96-8.34-16.56-16.69-20.32-20.65-9.53-44.19,7.53-42.01,29.92.11,2.12.38,4.37-1.56,4.26-2.98.05-10.03,0-18.38.02-13.81-.02-30.83.01-43.04,0-1.63.09-2.18-.27-2.29.9-.03,7.25,0,86.39-.01,98.02-.02.63.01,1.4.78,1.31h.06Z"/>
      <path class="cls-2" d="M103.28,176.25c-12.45-6.62-23.31-11.63-36.23-15.75-34.54-10.79-54.05-5.19-65.46,1.92-1.9,1.84-1.72,5.42-1.36,8.01.67,4.97,2.8,9.6,6.06,13.19,3.96,4.86,11.86,8.06,17.74,8.32,11.45.19,58.07,0,91.23.06,12.36,0,21.89.01,24.65,0,.53-.02.48-.13-.3-.41-11.54-3.55-24.29-8.85-36.15-15.24l-.18-.09Z"/>
    </g>
  </g>
</svg>